<?xml version="1.0" encoding="UTF-8"?>
<!DOCTYPE svg PUBLIC "-//W3C//DTD SVG 1.1//EN" "http://www.w3.org/Graphics/SVG/1.1/DTD/svg11.dtd">
<!-- Creator: CorelDRAW -->
<svg xmlns="http://www.w3.org/2000/svg" xml:space="preserve" width="2048px" height="2048px" style="shape-rendering:geometricPrecision; text-rendering:geometricPrecision; image-rendering:optimizeQuality; fill-rule:evenodd; clip-rule:evenodd"
viewBox="0 0 2048 2048"
 xmlns:xlink="http://www.w3.org/1999/xlink">
 <defs>
  <style type="text/css">
   <![CDATA[
    .fil2 {fill:none}
    .fil1 {fill:#1565C0}
    .fil0 {fill:#1E88E5}
    .fil16 {fill:#6EA53B}
    .fil17 {fill:#7AB242}
    .fil14 {fill:#7CB342}
    .fil15 {fill:#8BC34A}
    .fil5 {fill:#C57040}
    .fil10 {fill:#CA2B03}
    .fil11 {fill:#DD2C00}
    .fil4 {fill:#E08045}
    .fil3 {fill:#FFAF68}
    .fil6 {fill:#FFF8E1}
    .fil13 {fill:#8BC34A;fill-rule:nonzero}
    .fil7 {fill:#E08045;fill-rule:nonzero}
    .fil8 {fill:#E0E0E0;fill-rule:nonzero}
    .fil12 {fill:#E6E6E6;fill-rule:nonzero}
    .fil9 {fill:#E8EAF6;fill-rule:nonzero}
    .fil18 {fill:white;fill-rule:nonzero}
   ]]>
  </style>
   <clipPath id="id0">
    <path d="M1024 -0.0011811c565.541,0 1024,458.461 1024,1024 0,565.541 -458.461,1024 -1024,1024 -565.541,0 -1024,-458.461 -1024,-1024 0,-565.541 458.461,-1024 1024,-1024z"/>
   </clipPath>
 </defs>
 <g id="Layer_x0020_1">
  <metadata id="CorelCorpID_0Corel-Layer"/>
  <path class="fil0" d="M1024 -0.0011811c565.541,0 1024,458.461 1024,1024 0,565.541 -458.461,1024 -1024,1024 -565.541,0 -1024,-458.461 -1024,-1024 0,-565.541 458.461,-1024 1024,-1024z"/>
  <g style="clip-path:url(#id0)">
   <g id="_517132288">
    <g>
     <polygon id="_4899630481" class="fil1" points="1366.51,473.553 2502.4,1609.44 2503.25,1610.48 2504.04,1611.58 2504.77,1612.72 2505.43,1613.91 2506.03,1615.13 2506.55,1616.4 2507,1617.7 2507.38,1619.04 2507.67,1620.4 2507.89,1621.8 2508.02,1623.22 2508.06,1624.67 1372.18,488.783 1372.14,487.339 1372,485.918 1371.79,484.522 1371.5,483.155 1371.12,481.819 1370.67,480.517 1370.15,479.25 1369.55,478.023 1368.89,476.837 1368.16,475.695 1367.37,474.599 "/>
     <polygon id="_489963552" class="fil1" points="1372.18,488.783 2508.06,1624.67 2508.06,1713.18 1372.18,577.3 "/>
     <polygon id="_489964368" class="fil1" points="1405.92,577.293 2541.8,1713.17 2545.78,1719.94 1409.9,584.057 "/>
     <polygon id="_489963768" class="fil1" points="1410.62,584.829 2546.5,1720.71 2547.18,1721.52 2547.82,1722.36 2548.43,1723.22 2548.99,1724.12 2549.51,1725.05 2549.99,1726 2550.43,1726.98 2550.81,1727.98 2551.15,1729 2551.45,1730.05 2551.69,1731.11 2551.88,1732.2 2552.01,1733.3 2552.1,1734.42 2552.13,1735.55 1416.25,599.665 1416.22,598.534 1416.13,597.416 1416,596.315 1415.81,595.232 1415.56,594.167 1415.27,593.122 1414.93,592.097 1414.54,591.095 1414.11,590.118 1413.63,589.165 1413.11,588.24 1412.55,587.341 1411.94,586.473 1411.3,585.636 "/>
     <polygon id="_489963840" class="fil1" points="1416.25,599.665 2552.13,1735.55 2552.13,2697.51 1416.25,1561.63 "/>
     <polygon id="_489964392" class="fil1" points="1416.25,1561.63 2552.13,2697.51 2552.01,2699.8 2551.67,2702.02 2551.12,2704.16 2550.37,2706.22 2549.43,2708.17 2548.31,2710.02 2547.02,2711.74 2545.57,2713.33 2543.99,2714.77 2542.26,2716.06 2540.42,2717.18 2538.46,2718.12 2536.41,2718.88 2534.26,2719.43 2532.04,2719.77 2529.76,2719.88 1393.87,1584 1396.16,1583.88 1398.38,1583.55 1400.53,1582.99 1402.58,1582.24 1404.54,1581.3 1406.38,1580.18 1408.1,1578.89 1409.69,1577.45 1411.14,1575.86 1412.42,1574.14 1413.55,1572.29 1414.49,1570.34 1415.24,1568.28 1415.79,1566.14 1416.13,1563.92 "/>
     <polygon id="_489964440" class="fil1" points="1393.87,1584 2529.76,2719.88 1888.5,2719.88 752.617,1584 "/>
     <polygon id="_489964176" class="fil1" points="752.617,1584 1888.5,2719.88 1876.09,2719.88 740.206,1584 "/>
     <polygon id="_489963960" class="fil1" points="737.356,1583.95 1873.24,2719.83 1872.46,2719.82 1871.67,2719.77 1870.89,2719.7 1870.1,2719.6 1869.32,2719.48 1868.53,2719.32 1867.75,2719.14 1866.96,2718.92 731.079,1583.04 731.865,1583.25 732.65,1583.44 733.437,1583.6 734.223,1583.72 735.009,1583.82 735.793,1583.89 736.576,1583.93 "/>
     <polygon id="_489964080" class="fil1" points="740.206,1584 1876.09,2719.88 1873.24,2719.88 737.356,1584 "/>
     <polygon id="_489965256" class="fil1" points="731.079,1583.04 1866.96,2718.92 1864.19,2718.08 1861.46,2717.22 1858.77,2716.33 1856.11,2715.41 1853.49,2714.46 1850.91,2713.49 1848.37,2712.49 1845.86,2711.45 1843.39,2710.4 1840.95,2709.31 1838.56,2708.19 1836.2,2707.05 1833.88,2705.88 1831.6,2704.68 1829.35,2703.45 1827.14,2702.19 1824.97,2700.9 1822.84,2699.59 1820.75,2698.24 1818.69,2696.87 1816.68,2695.47 1814.7,2694.04 1812.76,2692.57 1810.85,2691.08 1808.99,2689.56 673.11,1553.68 674.973,1555.2 676.875,1556.69 678.815,1558.15 680.794,1559.58 682.811,1560.99 684.867,1562.36 686.96,1563.71 689.092,1565.02 691.262,1566.31 693.469,1567.56 695.715,1568.79 697.998,1570 700.319,1571.17 702.676,1572.31 705.073,1573.43 707.506,1574.51 709.977,1575.57 712.484,1576.6 715.029,1577.61 717.612,1578.58 720.232,1579.53 722.888,1580.45 725.581,1581.34 728.312,1582.2 "/>
    </g>
    <path id="_517132384" class="fil1" d="M806.781 465.651c179.731,-3.58583 362.302,-0.21378 542.347,-0.21378 5.03386,0 9.68032,1.66299 13.4185,4.47048 5.83701,4.23544 9.63308,11.113 9.63308,18.8752l0 88.5166 33.7382 -0.00708662 3.98032 6.76418c3.92717,4.02992 6.34725,9.53741 6.34725,15.6083l0 961.964c0,12.3555 -10.0169,22.3713 -22.3713,22.3713l-641.258 0 -12.411 0 -2.85 0 0 -0.0519685c-2.0752,-0.00236221 -4.18465,-0.295276 -6.27638,-0.90945 -29.7118,-8.77678 -53.1591,-22.2284 -69.9296,-40.8331 -17.0516,-18.9154 -26.7933,-42.4819 -28.7823,-71.1296 -0.126378,-0.96378 -0.19252,-1.9441 -0.19252,-2.94213l0 -913.028c-2.2004,-17.6043 4.38189,-33.5729 16.598,-46.2437 21.9933,-22.8095 70.9477,-41.4697 158.008,-43.2107z"/>
   </g>
  </g>
  <path class="fil2" d="M1024 -0.0011811c565.541,0 1024,458.461 1024,1024 0,565.541 -458.461,1024 -1024,1024 -565.541,0 -1024,-458.461 -1024,-1024 0,-565.541 458.461,-1024 1024,-1024z"/>
  <path class="fil3" d="M740.206 577.426l665.712 -0.133465 3.98032 6.76418c3.92717,4.02992 6.34725,9.53741 6.34725,15.6083l0 961.964c0,12.3555 -10.0169,22.3713 -22.3713,22.3713l-653.669 0 0 -1006.57z"/>
  <path class="fil4" d="M734.329 577.432l5.87481 -0.0011811 0 1006.34c-2.97047,0.382677 -6.06615,0.170079 -9.12402,-0.72756 -29.7118,-8.77678 -53.1591,-22.2284 -69.9296,-40.8331 -17.0516,-18.9154 -26.7933,-42.4819 -28.7823,-71.1296 -0.126378,-0.96378 -0.19252,-1.9441 -0.19252,-2.94213l0 -913.028c-2.2004,-17.6043 4.38189,-33.5729 16.598,-46.2437 21.9933,-22.8095 70.9477,-41.4697 158.008,-43.2107 179.731,-3.58583 362.302,-0.21378 542.347,-0.21378 10.2661,0 18.9177,6.91772 21.5492,16.3441 4.90985,11.263 -4.11969,24.0697 -18.5965,27.2752 -9.9945,0.62126 -18.4547,1.12441 -28.3299,1.12795l-524.176 0.216142c-12.5705,0.69567 -55.7292,-0.466536 -87.032,7.52008 -68.6162,17.5075 -29.7296,59.6977 21.7854,59.5111z"/>
  <path class="fil5" d="M737.356 564.471l0 1019.53 15.261 0 0 -1018.92c-0.574016,0.141732 -1.15748,0.231496 -1.75158,0.263386 -4.61811,0.249213 -9.13465,-0.0625985 -13.5095,-0.869292z"/>
  <path class="fil6" d="M1339.95 510.45l-21.5079 0.00944883 -525.749 0.211417c-75.7323,0.0295276 -112.109,12.7996 -116.665,31.3914 -3.5374,14.4366 10.2898,35.7874 51.4181,35.6386 0.519685,-0.0897638 1.01575,-0.138189 1.47756,-0.138189l613.568 0 -2.54173 -67.1127z"/>
  <path class="fil7" d="M1372.18 488.783c0,-12.8705 -10.435,-23.3055 -23.3055,-23.3055 -12.8705,0 -23.3043,10.435 -23.3043,23.3055l0 20.7673 0 68.0079 46.6099 0 0 -88.7753z"/>
  <rect class="fil5" x="937.43" y="809.699" width="264.005" height="28.12"/>
  <rect class="fil5" x="838.817" y="887.026" width="461.23" height="28.12"/>
  <path class="fil8" d="M1013.94 1152.55c1.45394,1.7752 1.05827,4.38071 -0.718111,5.83347 -1.77638,1.45394 -4.39489,1.19291 -5.84882,-0.583465l-22.5461 -27.5528c-14.1319,-17.2689 -16.4469,-4.79764 -33.7394,-25.7918l-43.8697 -53.1556 0 -0.0011811c-2.42008,-2.95748 -3.41221,-6.63308 -3.05788,-10.1705 0.35315,-3.53859 2.05158,-6.94489 5.01024,-9.36497l0 0 0 0c2.95866,-2.42126 6.63308,-3.41221 10.1717,-3.05906 3.5374,0.35315 6.95788,1.91811 9.37796,4.87559l44.0115 53.7827c18.3555,22.4303 3.67205,19.4669 19.376,38.6575l21.8327 26.5299z"/>
  <path class="fil9" d="M1074.87 1234.34c8.87363,-7.26024 13.0736,-18.4063 12.6898,-30.5575 -0.370866,-11.7662 -5.06811,-24.5043 -14.002,-35.4213l0 -0.0011811c-8.93505,-10.9181 -20.491,-18.0414 -31.9512,-20.7331 -11.8347,-2.78032 -23.5914,-0.869292 -32.465,6.39213l0 0c-8.87245,7.26142 -13.0725,18.4075 -12.6898,30.5575 0.370866,11.7673 5.06811,24.5043 14.0032,35.4225 8.93387,10.9181 20.4898,18.0425 31.9512,20.7343 11.8347,2.77914 23.5914,0.868111 32.4638,-6.39331z"/>
  <path class="fil8" d="M1073.43 1232.57c7.04292,-5.76378 10.3772,-14.6114 10.0724,-24.2551 -0.294095,-9.34016 -4.02284,-19.4516 -11.1142,-28.1173l0 0c-7.09253,-8.66694 -16.265,-14.3221 -25.363,-16.4587 -9.39331,-2.2063 -18.7252,-0.688583 -25.7681,5.0752l0 0c-7.0441,5.76378 -10.3772,14.6102 -10.0736,24.2551 0.295276,9.34016 4.02284,19.4504 11.1154,28.1173 7.09134,8.66575 16.265,14.3209 25.3618,16.4575 9.3945,2.20748 18.7264,0.689764 25.7693,-5.07402z"/>
  <path class="fil10" d="M986.286 1125.67l-3.51851 2.84646c-10.715,-10.2201 -14.4177,-2.39528 -30.1961,-21.5504l-45.3 -54.8894c-4.9937,-6.07678 -4.09961,-15.1689 2.01614,-20.1732 0.0531496,-0.0437008 0.10748,-0.0862205 0.161811,-0.12874l76.8367 93.8953z"/>
  <path class="fil11" d="M990.079 1122.6l-3.71693 3.00827 -0.0755906 0.0614174 -76.8367 -93.8953 0.011811 -0.00944883c6.08977,-4.82717 15.1996,-3.86929 20.0138,2.01496l45.4465 55.5355c16.5083,20.1732 7.13623,20.4555 15.1571,33.2847z"/>
  <path class="fil12" d="M1067.31 1227.18c-0.403937,0.330709 -0.999213,0.270473 -1.32992,-0.133465 -0.330709,-0.403937 -0.271654,-0.999213 0.132284,-1.32992 2.75315,-2.25236 4.79528,-5.09764 6.13347,-8.32087 1.40079,-3.37441 2.03504,-7.15985 1.90984,-11.1154 -0.120473,-3.85158 -0.966142,-7.87205 -2.52874,-11.8228 -1.50473,-3.80788 -3.67914,-7.55079 -6.51497,-11.0162 -0.330709,-0.403937 -0.270473,-1.00039 0.133465,-1.3311 0.403937,-0.330709 1.00039,-0.270473 1.3311,0.133465 2.9563,3.61299 5.22756,7.52717 6.80552,11.5205 1.64173,4.15158 2.52992,8.3882 2.65866,12.4595 0.133465,4.22835 -0.546851,8.28072 -2.04803,11.8961 -1.4563,3.5067 -3.6815,6.60473 -6.68268,9.06024z"/>
  <path class="fil13" d="M1264.82 1213.65c0,35.4733 -10.3358,68.5583 -28.1634,96.4123 -17.4673,27.2894 -42.1418,49.5296 -71.3398,64.0418l0 10.6902c0,4.39725 -3.56457,7.96064 -7.96064,7.96064l-71.6422 0 -71.641 0c-4.39725,0 -7.96064,-3.56339 -7.96064,-7.96064l0 -10.6902c-29.1981,-14.5122 -53.8737,-36.7524 -71.3398,-64.0418 -17.8276,-27.854 -28.1634,-60.939 -28.1634,-96.4123 0,-4.39607 3.56457,-7.96064 7.96064,-7.96064l342.29 0c4.39607,0 7.96064,3.56457 7.96064,7.96064z"/>
  <path class="fil14" d="M1085.71 1392.76l0 -160.645 0 -26.4201 -6.08977 0 -165.054 0c-4.39607,0 -7.96064,3.56457 -7.96064,7.96064 0,35.4733 10.3358,68.5583 28.1634,96.4123 17.4662,27.2894 42.1418,49.5296 71.3398,64.0418l0 10.6902c0,4.39725 3.56339,7.96064 7.96064,7.96064l71.641 0z"/>
  <path class="fil15" d="M1165.32 1374.11c29.1981,-14.5122 53.8725,-36.7524 71.3398,-64.0418 17.8276,-27.854 28.1634,-60.939 28.1634,-96.4123 0,-4.39607 -3.56457,-7.96064 -7.96064,-7.96064l-53.113 0 -34.2626 0 -38.739 0 -45.0307 0 0 26.4201 0 160.645 71.6422 0c4.39607,0 7.96064,-3.56339 7.96064,-7.96064l0 -10.6902z"/>
  <path class="fil16" d="M1085.71 1392.76l0 -18.6425 -79.6016 0 0 10.6819c0,4.39725 3.56339,7.96064 7.96064,7.96064l71.641 0z"/>
  <path class="fil17" d="M1085.71 1374.12l0 18.6425 71.6422 0c4.39607,0 7.96064,-3.56339 7.96064,-7.96064l0 -10.6819 -79.6028 0z"/>
  <path class="fil18" d="M1152.67 1058.8c-6.21497,-2.38583 -20.3811,30.4878 -19.9276,40.3878 0.50315,10.9996 4.84725,20.4532 13.3264,33.1453 3.4004,5.09056 6.06615,11.0894 6.76654,17.8028 1.31221,12.561 -5.00079,36.1725 -2.48386,37.9571 3.66969,2.17441 18.7087,-28.2614 17.452,-40.2827 -1.11024,-10.637 -5.06693,-19.7421 -10.0795,-27.2457 -20.8193,-31.1634 1.4374,-57.163 -5.05394,-61.7646z"/>
  <path class="fil12" d="M1199.68 1070.91c-4.84961,-1.59567 -24.841,26.9634 -24.1843,41.3055 0.394488,8.62323 3.69922,15.8847 10.141,25.5284 2.24646,3.36142 4.00394,7.28859 4.4563,11.6232 0.956694,9.16182 -3.47481,29.8725 -1.79764,30.867 2.29488,1.62638 27.8823,-25.9937 8.99646,-54.2587 -17.3126,-25.9158 8.13071,-50.9941 2.38819,-55.0654z"/>
  <path class="fil12" d="M1113.23 1177.01c6.7193,3.48544 20.1213,-20.1307 17.9906,-34.8756 -0.905906,-6.26812 -3.58583,-11.0374 -8.46969,-17.0209 -1.1563,-1.41614 -2.10945,-3.06851 -2.47795,-4.88741 -1.03701,-5.12008 0.369685,-22.6158 -3.03544,-24.4914 -3.11339,-0.583465 -13.3122,20.5949 -11.5807,29.1425 1.18228,5.83465 3.73937,10.5224 6.74528,14.2051 2.4626,3.01536 3.74174,4.92402 3.94961,6.3626 0.26811,1.86142 -6.38268,30.9555 -3.12166,31.565z"/>
 </g>
</svg>
