<?xml version="1.0" encoding="UTF-8"?>
<svg xmlns="http://www.w3.org/2000/svg" xmlns:xlink="http://www.w3.org/1999/xlink" width="900px" height="900px" viewBox="0 0 900 900" version="1.1">
<g id="surface1">
<path style=" stroke:none;fill-rule:nonzero;fill:rgb(0%,0%,0%);fill-opacity:1;" d="M 453.601562 290.339844 C 443.878906 293.398438 437.21875 294.121094 414 294.121094 C 384.480469 294.300781 375.660156 295.921875 365.21875 302.941406 C 352.078125 311.761719 340.378906 347.578125 342.898438 370.800781 C 344.878906 389.160156 356.398438 406.441406 375.660156 419.761719 C 383.398438 424.980469 397.621094 430.921875 399.238281 429.480469 C 399.601562 428.941406 404.28125 419.21875 409.679688 407.519531 C 420.839844 383.398438 422.101562 381.601562 427.5 381.601562 C 430.558594 381.601562 432.71875 378.898438 437.941406 367.738281 C 443.878906 355.140625 444.238281 353.519531 441.71875 350.820312 C 436.859375 345.421875 436.5 334.261719 441 320.398438 C 443.160156 313.558594 446.21875 306.898438 447.480469 305.820312 C 451.078125 302.941406 450.539062 305.28125 445.5 317.699219 C 437.941406 336.058594 440.640625 351 451.441406 351 C 459 351 463.5 346.859375 471.78125 332.101562 C 476.101562 324.71875 480.238281 318.601562 480.960938 318.601562 C 483.480469 318.601562 482.578125 320.761719 475.199219 333.179688 C 467.101562 347.039062 459 354.601562 452.519531 354.601562 C 448.558594 354.601562 447.121094 356.578125 441.539062 368.460938 C 436.5 379.621094 435.601562 382.859375 437.21875 385.558594 C 440.460938 390.78125 439.558594 394.738281 431.101562 413.101562 C 426.601562 422.820312 423.359375 431.101562 423.898438 431.640625 C 424.441406 432.179688 429.480469 431.820312 435.058594 430.921875 L 445.320312 429.300781 L 452.160156 415.441406 C 455.761719 407.878906 460.441406 400.679688 462.421875 399.601562 C 466.738281 397.441406 467.460938 392.761719 463.5 391.320312 C 461.339844 390.421875 461.519531 388.980469 464.398438 381.421875 C 478.261719 346.679688 498.421875 321.300781 506.160156 329.039062 C 508.140625 331.019531 504.898438 338.761719 486.179688 379.261719 C 480.238281 392.21875 475.199219 405.179688 475.199219 407.699219 C 475.199219 410.21875 474.300781 414.179688 473.21875 416.160156 C 471.421875 419.398438 471.601562 419.761719 474.480469 418.679688 C 481.320312 415.980469 506.699219 396.539062 514.800781 387.539062 C 531.179688 369.71875 533.160156 349.738281 521.28125 324.898438 C 513.539062 308.699219 505.800781 298.261719 496.441406 291.601562 C 489.960938 286.921875 487.621094 286.199219 477.179688 286.378906 C 470.339844 286.378906 460.261719 288.179688 453.601562 290.339844 Z M 460.800781 310.859375 C 460.800781 314.28125 450.539062 333 448.738281 333 C 447.300781 333 448.558594 328.679688 452.160156 321.300781 C 457.199219 311.21875 460.800781 306.71875 460.800781 310.859375 Z M 465.480469 328.679688 C 462.960938 334.078125 460.078125 338.21875 459.179688 337.5 C 458.101562 336.960938 459.71875 331.921875 462.960938 325.261719 C 469.800781 311.761719 471.960938 314.460938 465.480469 328.679688 Z M 465.480469 328.679688 "/>
<path style=" stroke:none;fill-rule:nonzero;fill:rgb(0%,0%,0%);fill-opacity:1;" d="M 491.761719 339.300781 C 485.101562 347.039062 473.398438 367.378906 468 381.421875 C 465.839844 386.820312 465.839844 387.71875 468.71875 389.878906 C 471.421875 391.679688 471.601562 392.761719 469.800781 396 C 468.359375 398.878906 468.179688 400.5 469.621094 401.941406 C 470.878906 403.199219 472.320312 401.941406 474.300781 397.078125 C 475.921875 393.300781 482.398438 378.898438 489.058594 364.859375 C 495.539062 350.820312 501.480469 337.5 502.378906 335.160156 C 505.078125 328.320312 499.5 330.480469 491.761719 339.300781 Z M 491.761719 339.300781 "/>
<path style=" stroke:none;fill-rule:nonzero;fill:rgb(0%,0%,0%);fill-opacity:1;" d="M 251.460938 450.71875 C 242.640625 452.339844 237.960938 454.140625 234.539062 457.558594 C 230.578125 461.699219 230.21875 462.78125 232.019531 465.121094 C 233.820312 467.28125 234.179688 477 233.820312 505.980469 L 233.101562 543.960938 L 237.238281 547.378906 C 247.5 555.480469 267.300781 556.199219 283.859375 549 C 307.800781 538.738281 312.480469 515.519531 294.480469 498.960938 L 286.921875 491.941406 L 291.960938 486.179688 C 301.859375 475.199219 296.820312 456.839844 282.601562 451.078125 C 274.320312 447.839844 268.558594 447.660156 251.460938 450.71875 Z M 276.121094 467.101562 C 281.878906 473.039062 272.878906 482.039062 258.121094 485.101562 L 252.359375 486.179688 L 251.820312 476.820312 C 251.28125 468.898438 251.640625 467.28125 254.699219 466.019531 C 260.820312 463.679688 273.058594 464.21875 276.121094 467.101562 Z M 278.460938 507.421875 C 294.660156 517.5 282.421875 535.859375 260.460938 534.238281 L 252.898438 533.699219 L 252.359375 522.898438 C 251.460938 505.441406 252.179688 504 263.339844 504 C 269.460938 504 274.679688 505.261719 278.460938 507.421875 Z M 278.460938 507.421875 "/>
<path style=" stroke:none;fill-rule:nonzero;fill:rgb(0%,0%,0%);fill-opacity:1;" d="M 463.859375 450.539062 C 448.199219 453.601562 441 459.71875 444.960938 466.378906 C 447.121094 469.980469 447.480469 477 446.398438 505.800781 C 445.859375 525.058594 445.859375 542.339844 446.761719 543.960938 C 450.898438 552.601562 472.140625 556.558594 488.878906 551.699219 C 503.640625 547.378906 510.300781 542.878906 514.621094 533.878906 C 521.101562 520.558594 518.398438 508.859375 506.519531 497.878906 L 499.859375 491.761719 L 504.539062 486 C 507.238281 482.941406 509.941406 478.441406 510.480469 476.101562 C 511.921875 470.339844 505.441406 456.480469 499.5 452.519531 C 493.378906 448.558594 479.339844 447.660156 463.859375 450.539062 Z M 488.699219 466.921875 C 491.761719 469.078125 491.941406 469.980469 489.960938 474.121094 C 487.800781 478.980469 480.960938 482.761719 470.339844 485.101562 L 464.398438 486.359375 L 464.398438 476.460938 C 464.398438 465.480469 464.941406 464.941406 478.078125 464.578125 C 482.039062 464.578125 486.898438 465.480469 488.699219 466.921875 Z M 490.859375 507.601562 C 496.621094 511.019531 499.5 516.960938 498.238281 523.261719 C 497.519531 527.578125 483.300781 534.601562 474.839844 534.601562 C 466.738281 534.601562 464.398438 531.179688 464.398438 519.300781 C 464.398438 506.699219 466.558594 504 476.640625 504 C 481.859375 504 487.261719 505.441406 490.859375 507.601562 Z M 490.859375 507.601562 "/>
<path style=" stroke:none;fill-rule:nonzero;fill:rgb(0%,0%,0%);fill-opacity:1;" d="M 318.601562 471.601562 C 315 478.441406 322.199219 485.28125 328.679688 480.960938 C 331.738281 478.980469 332.640625 474.660156 330.839844 471.058594 C 328.679688 466.921875 320.941406 467.101562 318.601562 471.601562 Z M 318.601562 471.601562 "/>
<path style=" stroke:none;fill-rule:nonzero;fill:rgb(0%,0%,0%);fill-opacity:1;" d="M 532.261719 469.261719 C 529.921875 471.601562 531 480.238281 533.878906 481.320312 C 541.078125 484.019531 546.839844 478.800781 544.5 471.601562 C 543.421875 468 534.960938 466.378906 532.261719 469.261719 Z M 532.261719 469.261719 "/>
<path style=" stroke:none;fill-rule:nonzero;fill:rgb(0%,0%,0%);fill-opacity:1;" d="M 570.960938 470.339844 C 569.878906 471.601562 568.441406 476.101562 567.71875 480.421875 C 567 485.460938 565.199219 488.878906 562.320312 490.679688 C 556.199219 494.820312 555.660156 498.421875 560.699219 504.359375 C 564.121094 508.5 565.199219 511.738281 565.199219 518.761719 C 565.199219 533.878906 571.5 543.058594 583.921875 546.121094 C 593.101562 548.460938 604.800781 542.160156 604.800781 534.78125 C 604.800781 530.460938 598.859375 527.039062 593.101562 528.121094 C 586.078125 529.558594 584.101562 527.398438 582.300781 516.960938 L 581.039062 509.398438 L 588.238281 509.398438 C 596.160156 509.398438 601.199219 505.800781 601.199219 500.398438 C 601.199219 495.71875 596.339844 491.398438 591.300781 491.398438 C 583.199219 491.398438 581.398438 489.601562 581.398438 481.5 C 581.398438 471.058594 575.460938 464.761719 570.960938 470.339844 Z M 570.960938 470.339844 "/>
<path style=" stroke:none;fill-rule:nonzero;fill:rgb(0%,0%,0%);fill-opacity:1;" d="M 626.578125 488.699219 C 618.839844 495.359375 615.058594 506.699219 615.960938 520.921875 C 616.679688 534.058594 620.820312 540.179688 631.261719 544.679688 C 644.21875 550.261719 661.679688 545.039062 660.238281 535.859375 C 659.699219 532.078125 656.28125 530.460938 643.5 528.300781 C 636.839844 527.039062 636.660156 526.859375 640.800781 525.601562 C 643.320312 524.699219 648.539062 523.621094 652.320312 522.898438 C 661.320312 521.460938 669.601562 513.359375 669.601562 506.160156 C 669.601562 499.859375 662.761719 490.859375 655.019531 486.898438 C 646.738281 482.398438 633.058594 483.480469 626.578125 488.699219 Z M 648.71875 500.398438 C 655.738281 502.921875 654.300781 505.261719 644.941406 506.519531 C 635.039062 507.78125 633.78125 507.058594 638.101562 502.199219 C 641.878906 498.058594 642.421875 497.878906 648.71875 500.398438 Z M 648.71875 500.398438 "/>
<path style=" stroke:none;fill-rule:nonzero;fill:rgb(0%,0%,0%);fill-opacity:1;" d="M 360 491.578125 C 350.101562 497.339844 344.699219 506.519531 344.699219 517.679688 C 344.699219 525.601562 345.601562 527.941406 349.921875 532.621094 C 357.480469 540.359375 364.140625 542.699219 372.238281 540.359375 C 375.839844 539.28125 379.078125 538.738281 379.621094 539.28125 C 381.78125 541.441406 371.160156 556.921875 365.761719 559.800781 C 356.578125 564.839844 354.421875 567.359375 354.960938 572.21875 C 355.320312 575.28125 357.300781 577.800781 360.71875 579.421875 C 365.398438 581.578125 366.839844 581.398438 374.21875 578.519531 C 385.019531 574.019531 393.300781 563.039062 396 549.539062 C 398.519531 537.839844 396.898438 499.140625 393.660156 495.359375 C 390.601562 491.578125 379.980469 487.800781 372.78125 487.800781 C 369.179688 487.800781 363.421875 489.601562 360 491.578125 Z M 378.539062 508.859375 C 375.121094 518.398438 367.921875 524.160156 365.039062 519.839844 C 362.878906 516.238281 363.238281 514.980469 368.101562 510.300781 C 373.320312 504.898438 380.339844 504.179688 378.539062 508.859375 Z M 378.539062 508.859375 "/>
<path style=" stroke:none;fill-rule:nonzero;fill:rgb(0%,0%,0%);fill-opacity:1;" d="M 323.460938 495.359375 C 321.480469 496.980469 319.679688 504 317.519531 518.941406 C 314.640625 539.28125 314.640625 540.179688 317.878906 543.78125 C 322.019531 548.460938 327.78125 547.558594 330.660156 541.800781 C 333.71875 535.859375 333.898438 498.421875 330.839844 495.359375 C 328.140625 492.660156 327.238281 492.660156 323.460938 495.359375 Z M 323.460938 495.359375 "/>
<path style=" stroke:none;fill-rule:nonzero;fill:rgb(0%,0%,0%);fill-opacity:1;" d="M 535.859375 495.71875 C 533.519531 498.058594 529.019531 522.539062 528.660156 535.320312 C 528.300781 546.660156 537.300781 551.339844 542.878906 542.699219 C 545.039062 539.460938 546.121094 532.441406 546.839844 518.761719 C 547.558594 502.019531 547.199219 498.960938 544.679688 496.261719 C 540.898438 492.480469 539.28125 492.480469 535.859375 495.71875 Z M 535.859375 495.71875 "/>
</g>
</svg>
