<?xml version="1.0" encoding="iso-8859-1"?>
<!-- Generator: Adobe Illustrator 21.0.0, SVG Export Plug-In . SVG Version: 6.00 Build 0)  -->
<svg version="1.1" id="Layer_1" xmlns="http://www.w3.org/2000/svg" xmlns:xlink="http://www.w3.org/1999/xlink" x="0px" y="0px"
	 width="595.276px" height="595.276px" viewBox="0 0 595.276 595.276" enable-background="new 0 0 595.276 595.276"
	 xml:space="preserve">
<g>
	<defs>
		<rect id="SVGID_3_" width="595.276" height="595.276"/>
	</defs>
	<clipPath id="SVGID_2_">
		<use xlink:href="#SVGID_3_"  overflow="visible"/>
	</clipPath>
	<g clip-path="url(#SVGID_2_)">
		<path fill="#D3B97D" d="M314.05,53.862c-37.685,2.448-72.867,19.535-107.005,36.331c-31.927,15.708-65.713,33.132-83.67,64.787
			c-16.76,29.546-16.486,65.798-22.619,99.512c-7.614,41.858-25.763,82.553-22.567,125.024
			c2.88,38.268,23.203,73.286,49.367,100.332c26.164,27.046,58.022,47.206,89.554,67.103c22.117,13.956,44.84,28.162,70.24,33.231
			c39.773,7.937,81.242-8.021,113.365-33.694s56.415-60.295,79.632-94.838c26.216-39.004,52.187-79.798,62.061-126.279
			c9.874-46.481,0.333-100.406-34.889-130.764c-11.077-9.547-24.063-16.327-36.13-24.471
			C410.938,129.332,399.678,48.3,314.05,53.862z"/>
		
			<path fill="none" stroke="#09090A" stroke-width="7.2669" stroke-linecap="round" stroke-linejoin="round" stroke-miterlimit="10" d="
			M399.486,89.602c0,0-26.87,11.727-21.932,20.295c13.984,24.264,46.883,3.347,60.921,22.832
			c10.537,14.627-13.574,28.996-2.437,40.589c12.246,12.749,34.167-11.803,43.862-5.074c10.541,7.315-5.041,23.269,12.184,30.443
			c32.051,13.346,46.726-33.042,63.357,30.442c54.833,209.308-192.267,406.018-372.829,312.031
			C45.582,469.831,22.556,225.786,124.128,120.045c52.821-54.99,131.989-80.602,202.368-80.602c26.131,0,35.876,0,56.349,22.675
			C404.028,85.579,399.486,89.602,399.486,89.602z"/>
		<path fill="#301F0D" d="M88.536,260.678c7.885-4.664,13.627-12.36,18.996-19.969c16.82-23.836,35.187-56.44,18.777-85.729
			c-13.963-24.921-42.22-29.608-64.059-14.007C18.055,172.548,23.066,299.398,88.536,260.678z"/>
		
			<path fill="none" stroke="#09090A" stroke-width="7.2669" stroke-linecap="round" stroke-linejoin="round" stroke-miterlimit="10" d="
			M101.93,148.293c-23.255,3.806-88.521,65.458-55.779,85.908c31.952,19.959,82.85-16.964,82.85-53.273
			C129.001,180.928,125.185,144.486,101.93,148.293z"/>
		<path fill="#301F0D" d="M160.821,373.917c-15.63,10.473-25.622,29.503-25.651,48.854c-0.029,19.351,9.906,38.413,25.505,48.937
			c7.804,5.265,17.928,8.422,26.388,4.403c9.102-4.324,13.392-15.917,12.343-26.276c-1.049-10.359-6.351-19.688-12.041-28.257
			c-11.126-16.756-27.978-33.607-47.28-30.273"/>
		<path fill="#301F0D" d="M407.134,448.923c-13.083-4.227-27.65-5.698-40.233-0.061c-12.583,5.637-22.232,19.862-19.681,33.874
			c2.718,14.928,16.875,23.903,28.747,32.742c14.076,10.479,27.102,23.474,43.681,28.636s38.392-1.427,42.814-18.844
			c3.311-13.042-4.468-26.691-14.672-35.007c-10.203-8.316-22.682-12.927-33.908-19.665c-11.226-6.739-21.886-16.81-24.015-30.117"
			/>
		<path fill="#301F0D" d="M358.798,310.933c-23.58-7.837-51.847,5.856-61.275,29.682c-9.428,23.826,1.374,54.274,23.414,66.001
			c5.923,3.152,12.596,5.065,19.223,4.463c12.617-1.146,23.151-11.311,28.744-23.14c5.593-11.829,7.131-25.222,8.588-38.319
			c1.199-10.779,2.298-22.234-2.221-32.013c-4.518-9.779-16.94-16.406-25.724-10.565"/>
		<path fill="#301F0D" d="M308.66,188.296c-12.526-13.933-34.923-15.474-50.496-5.408s-24.108,29.758-23.688,48.837
			c0.148,6.744,1.335,13.569,4.352,19.539c7.691,15.219,27.121,21.907,42.722,16.257s26.536-21.907,28.338-39.001
			c1.803-17.094-4.742-34.486-15.669-47.383"/>
		<path fill="#301F0D" d="M330.309,33.86c-12.113-9.208-29.703-5.916-42.104,2.866c-6.921,4.902-13.014,11.632-15.445,19.971
			c-5.419,18.582,12.203,39.269,30.795,37.692s29.283-22.275,29.624-41.671c0.416-23.654-20.893-33.858-39.527-34.762"/>
		<path fill="#301F0D" d="M433.214,269.61c-9.961,12.963-18.944,29.919-13.322,45.453c3.591,9.923,12.516,16.782,21.894,20.922
			c23.604,10.42,51.913,6.321,73.546-8.004c30.904-20.464,42.651-69.506,8.574-94.581
			C492.639,210.393,452.391,244.655,433.214,269.61z"/>
		
			<path fill="none" stroke="#09090A" stroke-width="7.2669" stroke-linecap="round" stroke-linejoin="round" stroke-miterlimit="10" d="
			M306.887,29.987c-29.395,9.151-40.701,71.328-2.436,64.689C357.111,85.539,337.021,20.605,306.887,29.987z"/>
		
			<path fill="none" stroke="#09090A" stroke-width="7.2669" stroke-linecap="round" stroke-linejoin="round" stroke-miterlimit="10" d="
			M132.656,407.975c-8.16,14.094-23.305,63.789,23.15,79.91c37.272,12.934,34.487-58.548,24.368-76.104
			C159.897,376.598,140.816,393.881,132.656,407.975z"/>
		
			<path fill="none" stroke="#09090A" stroke-width="7.2669" stroke-linecap="round" stroke-linejoin="round" stroke-miterlimit="10" d="
			M249.623,196.149c-13.988,18.899-48.84,40.689-8.529,63.422c12.875,7.261,31.745,6.022,43.862-2.538
			c13.84-9.777,21.492-28.51,24.368-45.663C312.25,193.914,280.039,167.524,249.623,196.149z"/>
		
			<path fill="none" stroke="#09090A" stroke-width="7.2669" stroke-linecap="round" stroke-linejoin="round" stroke-miterlimit="10" d="
			M343.212,316.517c-16.161-4.06-28.229,6.229-33.888,14.085c-21.604,29.988-25.708,98.988,29.242,76.104
			c7.844-3.267,29.655-8.999,37.454-36.398C392.573,312.157,359.373,320.576,343.212,316.517z"/>
		
			<path fill="none" stroke="#09090A" stroke-width="7.2669" stroke-linecap="round" stroke-linejoin="round" stroke-miterlimit="10" d="
			M423.854,279.865c-9.812,27.517-11.762,56.622,34.115,71.031c52.801,16.583,100.505-25.754,92.598-71.031
			C535.655,194.478,453.505,236.649,423.854,279.865"/>
		
			<path fill="none" stroke="#09090A" stroke-width="7.2669" stroke-linecap="round" stroke-linejoin="round" stroke-miterlimit="10" d="
			M377.97,459.621c-88.449,0,14.688,112.955,58.067,86.611C494.062,510.995,428.665,454.775,377.97,459.621"/>
	</g>
</g>
</svg>
