<?xml version="1.0" standalone="no"?>
<!DOCTYPE svg PUBLIC "-//W3C//DTD SVG 20010904//EN"
 "http://www.w3.org/TR/2001/REC-SVG-20010904/DTD/svg10.dtd">
<svg version="1.0" xmlns="http://www.w3.org/2000/svg"
 width="500.000000pt" height="500.000000pt" viewBox="0 0 500.000000 500.000000"
 preserveAspectRatio="xMidYMid meet">

<g transform="translate(0.000000,500.000000) scale(0.100000,-0.100000)"
fill="#000000" stroke="none">
<path d="M2520 3387 c-54 -17 -91 -21 -220 -21 -164 -1 -213 -10 -271 -49 -73
-49 -138 -248 -124 -377 11 -102 75 -198 182 -272 43 -29 122 -62 131 -54 2 3
28 57 58 122 62 134 69 144 99 144 17 0 29 15 58 77 33 70 35 79 21 94 -27 30
-29 92 -4 169 12 38 29 75 36 81 20 16 17 3 -11 -66 -42 -102 -27 -185 33
-185 42 0 67 23 113 105 24 41 47 75 51 75 14 0 9 -12 -32 -81 -45 -77 -90
-119 -126 -119 -22 0 -30 -11 -61 -77 -28 -62 -33 -80 -24 -95 18 -29 13 -51
-34 -153 -25 -54 -43 -100 -40 -103 3 -3 31 -1 62 4 l57 9 38 77 c20 42 46 82
57 88 24 12 28 38 6 46 -12 5 -11 13 5 55 77 193 189 334 232 291 11 -11 -7
-54 -111 -279 -33 -72 -61 -144 -61 -158 0 -14 -5 -36 -11 -47 -10 -18 -9 -20
7 -14 38 15 179 123 224 173 91 99 102 210 36 348 -43 90 -86 148 -138 185
-36 26 -49 30 -107 29 -38 0 -94 -10 -131 -22z m40 -114 c0 -19 -57 -123 -67
-123 -8 0 -1 24 19 65 28 56 48 81 48 58z m26 -99 c-14 -30 -30 -53 -35 -49
-6 3 3 31 21 68 38 75 50 60 14 -19z"/>
<path d="M2732 3115 c-37 -43 -102 -156 -132 -234 -12 -30 -12 -35 4 -47 15
-10 16 -16 6 -34 -8 -16 -9 -25 -1 -33 7 -7 15 0 26 27 9 21 45 101 82 179 36
78 69 152 74 165 15 38 -16 26 -59 -23z"/>
<path d="M1397 2496 c-49 -9 -75 -19 -94 -38 -22 -23 -24 -29 -14 -42 10 -12
12 -66 10 -227 l-4 -211 23 -19 c57 -45 167 -49 259 -9 133 57 159 186 59 278
l-42 39 28 32 c55 61 27 163 -52 195 -46 18 -78 19 -173 2z m137 -91 c32 -33
-18 -83 -100 -100 l-32 -6 -3 52 c-3 44 -1 53 16 60 34 13 102 10 119 -6z m13
-224 c90 -56 22 -158 -100 -149 l-42 3 -3 60 c-5 97 -1 105 61 105 34 0 63 -7
84 -19z"/>
<path d="M2577 2497 c-87 -17 -127 -51 -105 -88 12 -20 14 -59 8 -219 -3 -107
-3 -203 2 -212 23 -48 141 -70 234 -43 82 24 119 49 143 99 36 74 21 139 -45
200 l-37 34 26 32 c15 17 30 42 33 55 8 32 -28 109 -61 131 -34 22 -112 27
-198 11z m138 -91 c17 -12 18 -17 7 -40 -12 -27 -50 -48 -109 -61 l-33 -7 0
55 c0 61 3 64 76 66 22 0 49 -5 59 -13z m12 -226 c32 -19 48 -52 41 -87 -4
-24 -83 -63 -130 -63 -45 0 -58 19 -58 85 0 70 12 85 68 85 29 0 59 -8 79 -20z"/>
<path d="M1770 2380 c-20 -38 20 -76 56 -52 17 11 22 35 12 55 -12 23 -55 22
-68 -3z"/>
<path d="M2957 2393 c-13 -13 -7 -61 9 -67 40 -15 72 14 59 54 -6 20 -53 29
-68 13z"/>
<path d="M3172 2387 c-6 -7 -14 -32 -18 -56 -4 -28 -14 -47 -30 -57 -34 -23
-37 -43 -9 -76 19 -23 25 -41 25 -80 0 -84 35 -135 104 -152 51 -13 116 22
116 63 0 24 -33 43 -65 37 -39 -8 -50 4 -60 62 l-7 42 40 0 c44 0 72 20 72 50
0 26 -27 50 -55 50 -45 0 -55 10 -55 55 0 58 -33 93 -58 62z"/>
<path d="M3481 2285 c-43 -37 -64 -100 -59 -179 4 -73 27 -107 85 -132 72 -31
169 -2 161 49 -3 21 -22 30 -93 42 -37 7 -38 8 -15 15 14 5 43 11 64 15 50 8
96 53 96 93 0 35 -38 85 -81 107 -46 25 -122 19 -158 -10z m123 -65 c39 -14
31 -27 -21 -34 -55 -7 -62 -3 -38 24 21 23 24 24 59 10z"/>
<path d="M2000 2269 c-55 -32 -85 -83 -85 -145 0 -44 5 -57 29 -83 42 -43 79
-56 124 -43 20 6 38 9 41 6 12 -12 -47 -98 -77 -114 -51 -28 -63 -42 -60 -69
2 -17 13 -31 32 -40 26 -12 34 -11 75 5 60 25 106 86 121 161 14 65 5 280 -13
301 -17 21 -76 42 -116 42 -20 0 -52 -10 -71 -21z m103 -96 c-19 -53 -59 -85
-75 -61 -12 20 -10 27 17 53 29 30 68 34 58 8z"/>
<path d="M1797 2248 c-11 -9 -21 -48 -33 -131 -16 -113 -16 -118 2 -138 23
-26 55 -21 71 11 17 33 18 241 1 258 -15 15 -20 15 -41 0z"/>
<path d="M2977 2246 c-13 -13 -38 -149 -40 -220 -2 -63 48 -89 79 -41 12 18
18 57 22 133 4 93 2 110 -12 125 -21 21 -30 21 -49 3z"/>
</g>
</svg>
